<svg width="32" height="32" viewBox="0 0 32 32" fill="none" xmlns="http://www.w3.org/2000/svg">
<path d="M26.6668 16V29.3333H5.3335V16" stroke="black" stroke-width="1.5" stroke-linecap="round" stroke-linejoin="round"/>
<path d="M29.3332 9.3335H2.6665V16.0002H29.3332V9.3335Z" stroke="black" stroke-width="1.5" stroke-linecap="round" stroke-linejoin="round"/>
<path d="M16 29.3335V9.3335" stroke="black" stroke-width="1.5" stroke-linecap="round" stroke-linejoin="round"/>
<path d="M15.9998 9.33317H9.99984C9.11578 9.33317 8.26794 8.98198 7.64281 8.35686C7.01769 7.73174 6.6665 6.88389 6.6665 5.99984C6.6665 5.11578 7.01769 4.26794 7.64281 3.64281C8.26794 3.01769 9.11578 2.6665 9.99984 2.6665C14.6665 2.6665 15.9998 9.33317 15.9998 9.33317Z" stroke="black" stroke-width="1.5" stroke-linecap="round" stroke-linejoin="round"/>
<path d="M16 9.33317H22C22.8841 9.33317 23.7319 8.98198 24.357 8.35686C24.9821 7.73174 25.3333 6.88389 25.3333 5.99984C25.3333 5.11578 24.9821 4.26794 24.357 3.64281C23.7319 3.01769 22.8841 2.6665 22 2.6665C17.3333 2.6665 16 9.33317 16 9.33317Z" stroke="black" stroke-width="1.5" stroke-linecap="round" stroke-linejoin="round"/>
</svg>
