<svg width="80" height="80" viewBox="0 0 80 80" fill="none" xmlns="http://www.w3.org/2000/svg">
<circle cx="40" cy="40" r="40" fill="white"/>
<path d="M43.9248 29C45.621 29.4552 47.1676 30.3486 48.4094 31.5904C49.6512 32.8322 50.5446 34.3788 50.9998 36.075" stroke="black" stroke-width="1.5" stroke-linecap="round" stroke-linejoin="round"/>
<path d="M42.8877 32.8625C43.9078 33.1335 44.8382 33.6693 45.5846 34.4156C46.331 35.162 46.8668 36.0924 47.1377 37.1125" stroke="black" stroke-width="1.5" stroke-linecap="round" stroke-linejoin="round"/>
<path d="M35.5625 39.6C36.5915 41.7251 38.3098 43.439 40.4375 44.4625C40.5944 44.5369 40.768 44.569 40.9412 44.5559C41.1143 44.5427 41.2811 44.4847 41.425 44.3875L44.55 42.3C44.6881 42.2064 44.8476 42.1493 45.0137 42.134C45.1799 42.1187 45.3472 42.1457 45.5 42.2125L51.35 44.725C51.5499 44.8083 51.717 44.9549 51.8254 45.1424C51.9338 45.3298 51.9776 45.5477 51.95 45.7625C51.7646 47.2097 51.0582 48.5397 49.9631 49.5038C48.8679 50.4678 47.459 50.9997 46 51C41.4913 51 37.1673 49.209 33.9792 46.0209C30.7911 42.8327 29 38.5087 29 34C29.0003 32.541 29.5323 31.1321 30.4963 30.037C31.4603 28.9418 32.7903 28.2355 34.2375 28.05C34.4523 28.0224 34.6702 28.0662 34.8577 28.1747C35.0452 28.2831 35.1918 28.4501 35.275 28.65L37.7875 34.5125C37.8528 34.663 37.8802 34.8272 37.8671 34.9907C37.854 35.1541 37.8009 35.3119 37.7125 35.45L35.625 38.625C35.5321 38.7686 35.4775 38.9337 35.4666 39.1044C35.4556 39.2751 35.4887 39.4457 35.5625 39.6V39.6Z" stroke="black" stroke-width="1.5" stroke-linecap="round" stroke-linejoin="round"/>
</svg>
