<svg width="24" height="24" viewBox="0 0 24 24" fill="none" xmlns="http://www.w3.org/2000/svg">
<circle cx="12" cy="12" r="12" fill="black"/>
<path d="M18.1483 8.74498C18.079 8.46814 17.9379 8.21448 17.7392 8.00963C17.5405 7.80479 17.2913 7.656 17.0167 7.57831C16.0133 7.33331 12 7.33331 12 7.33331C12 7.33331 7.98667 7.33331 6.98334 7.60165C6.70874 7.67934 6.45949 7.82812 6.26079 8.03297C6.06209 8.23781 5.92097 8.49147 5.85167 8.76831C5.66805 9.78655 5.57823 10.8195 5.58334 11.8541C5.5768 12.8966 5.66662 13.9374 5.85167 14.9633C5.92807 15.2316 6.07235 15.4756 6.27059 15.6718C6.46883 15.868 6.71432 16.0097 6.98334 16.0833C7.98667 16.3516 12 16.3516 12 16.3516C12 16.3516 16.0133 16.3516 17.0167 16.0833C17.2913 16.0056 17.5405 15.8568 17.7392 15.652C17.9379 15.4471 18.079 15.1935 18.1483 14.9166C18.3305 13.9061 18.4204 12.881 18.4167 11.8541C18.4232 10.8117 18.3334 9.77089 18.1483 8.74498Z" fill="white"/>
<path d="M10.6875 13.7617L14.0417 11.8542L10.6875 9.94666V13.7617Z" fill="black" stroke="black" stroke-width="0.5" stroke-linecap="round" stroke-linejoin="round"/>
</svg>
