<svg width="32" height="32" viewBox="0 0 32 32" fill="none" xmlns="http://www.w3.org/2000/svg">
<path d="M19 10V25.4625C18.9985 25.6287 19.039 25.7926 19.1176 25.939C19.1963 26.0854 19.3106 26.2095 19.45 26.3L20.825 27.2125C20.9582 27.3014 21.1109 27.3571 21.2701 27.3747C21.4292 27.3924 21.5903 27.3716 21.7398 27.314C21.8893 27.2564 22.0227 27.1638 22.1289 27.0439C22.2351 26.924 22.3109 26.7803 22.35 26.625L24 20" stroke="black" stroke-width="1.5" stroke-linecap="round" stroke-linejoin="round"/>
<path d="M24 19.9998C25.3261 19.9998 26.5979 19.473 27.5355 18.5353C28.4732 17.5976 29 16.3259 29 14.9998C29 13.6737 28.4732 12.4019 27.5355 11.4643C26.5979 10.5266 25.3261 9.99979 24 9.99979H19C19 9.99979 12.1875 9.99979 5.6375 4.51229C5.49181 4.39173 5.31493 4.31496 5.12737 4.29086C4.93981 4.26677 4.74927 4.29635 4.57784 4.37618C4.40642 4.456 4.26114 4.5828 4.15886 4.74185C4.05658 4.9009 4.0015 5.0857 4 5.27479V24.7248C4.0015 24.9139 4.05658 25.0987 4.15886 25.2577C4.26114 25.4168 4.40642 25.5436 4.57784 25.6234C4.74927 25.7032 4.93981 25.7328 5.12737 25.7087C5.31493 25.6846 5.49181 25.6078 5.6375 25.4873C12.1875 19.9998 19 19.9998 19 19.9998H24Z" stroke="black" stroke-width="1.5" stroke-linecap="round" stroke-linejoin="round"/>
</svg>
