<svg width="20" height="20" viewBox="0 0 20 20" fill="none" xmlns="http://www.w3.org/2000/svg">
<path fill-rule="evenodd" clip-rule="evenodd" d="M10 19.1666C10 19.1666 17.5 14.1666 17.5 8.33331C17.5 6.34419 16.7098 4.43653 15.3033 3.03001C13.8968 1.62349 11.9891 0.833313 10 0.833313C8.01088 0.833313 6.10322 1.62349 4.6967 3.03001C3.29018 4.43653 2.5 6.34419 2.5 8.33331C2.5 14.1666 10 19.1666 10 19.1666ZM12.5 8.33331C12.5 9.71402 11.3807 10.8333 10 10.8333C8.61929 10.8333 7.5 9.71402 7.5 8.33331C7.5 6.9526 8.61929 5.83331 10 5.83331C11.3807 5.83331 12.5 6.9526 12.5 8.33331Z" fill="black"/>
</svg>
