<svg width="14" height="14" viewBox="0 0 14 14" fill="none" xmlns="http://www.w3.org/2000/svg">
<path d="M5.24943 9.43175L3.22527 7.40758C3.1162 7.29851 2.96827 7.23724 2.81402 7.23724C2.65977 7.23724 2.51184 7.29851 2.40277 7.40758C2.2937 7.51665 2.23242 7.66459 2.23242 7.81883C2.23242 7.89521 2.24747 7.97084 2.27669 8.0414C2.30592 8.11196 2.34876 8.17608 2.40277 8.23008L4.8411 10.6684C5.0686 10.8959 5.4361 10.8959 5.6636 10.6684L11.8353 4.49675C11.9443 4.38768 12.0056 4.23975 12.0056 4.0855C12.0056 3.93125 11.9443 3.78332 11.8353 3.67425C11.7262 3.56518 11.5783 3.50391 11.424 3.50391C11.2698 3.50391 11.1218 3.56518 11.0128 3.67425L5.24943 9.43175Z" fill="black"/>
</svg>
