<svg width="821" height="226" viewBox="0 0 821 226" fill="none" xmlns="http://www.w3.org/2000/svg">
<path d="M71.4355 166.113C71.4893 142.212 58.1689 126.152 38.8867 126.152C19.6045 126.152 6.3916 142.212 6.33789 166.113C6.3916 189.961 19.6045 206.074 38.8867 206.074C58.1689 206.074 71.4893 190.015 71.4355 166.113ZM9.88281 166.113C9.88281 143.984 21.8604 129.59 38.8867 129.59C56.0742 129.59 67.9443 144.146 67.998 166.113C67.998 188.081 56.0742 202.583 38.8867 202.637C21.6455 202.583 9.88281 187.974 9.88281 166.113ZM89.1344 166.436C89.1344 156.284 96.3854 149.248 106.429 149.248C116.42 149.248 123.241 156.123 123.187 166.221V205H126.732V166.113C126.732 153.975 118.568 145.918 106.859 145.918C98.6949 145.918 92.1959 149.839 89.4566 155.908H89.027V146.67H85.5895V205H89.1344V166.436ZM223.253 151.504H226.905C224.864 139.688 214.766 126.152 196.827 126.152C177.598 126.152 164.332 142.158 164.278 166.113C164.332 190.068 177.598 206.074 196.827 206.074C214.766 206.074 224.864 192.378 226.905 180.723H223.253C221.265 191.196 211.866 202.583 196.827 202.637C181.197 202.583 167.823 189.907 167.823 166.113C167.823 142.588 181.197 129.59 196.827 129.59C211.866 129.59 221.265 141.138 223.253 151.504ZM261.899 206.182C276.025 206.235 286.445 193.345 286.498 175.996C286.445 158.647 275.971 145.757 261.899 145.811C247.827 145.757 237.407 158.647 237.407 175.996C237.407 193.345 247.827 206.235 261.899 206.182ZM240.844 175.996C240.898 160.903 249.706 149.087 261.899 149.141C274.199 149.087 282.954 160.85 282.954 175.996C282.954 191.196 274.199 202.905 261.899 202.852C249.653 202.905 240.898 191.196 240.844 175.996ZM337.176 185.127C337.176 195.386 329.603 202.314 319.881 202.314C309.944 202.314 303.123 195.439 303.123 185.449V146.67H299.578V185.557C299.632 197.695 307.796 205.752 319.344 205.752C327.562 205.752 334.061 201.67 336.854 195.654H337.176V205H340.613V146.67H337.176V185.127ZM357.238 205H360.783V166.221C360.783 156.338 368.034 149.302 378.078 149.355C378.937 149.302 379.313 149.355 379.904 149.355V145.918C379.259 145.864 378.883 145.864 378.185 145.918C370.29 145.864 363.683 149.839 361.105 155.908H360.675V146.67H357.238V205ZM412.534 146.67H400.288V132.705H396.851V146.67H388.257V149.893H396.851V192.324C396.797 200.918 403.35 206.021 410.601 205.967C412.534 206.021 413.447 205.967 414.253 205.859V202.529C413.286 202.529 411.621 202.583 410.708 202.637C405.23 202.583 400.288 198.931 400.288 192.002V149.893H412.534V146.67Z" fill="black"/>
<path d="M50.815 42.0669L32.1559 38.3431C24.2315 36.8126 20.0462 32.7875 20.0462 26.7017C20.0462 19.5433 26.1854 14.9156 35.7019 14.9156C45.2184 14.9156 51.4422 19.2058 52.2262 27.003H70.3545C68.6901 9.50465 56.4477 0.273438 34.9421 0.273438C16.3433 0.273438 2.3158 12.1921 2.3158 27.9791C2.3158 41.1149 11.0483 51.2379 24.5692 53.7565L42.4684 57.1068C49.5123 58.4083 52.6483 62.0719 52.6483 69.0133C52.6483 76.8707 46.2557 81.9563 36.3533 81.9563C26.4508 81.9563 18.3455 75.9307 18.0078 68.1818H0C1.07347 85.5234 15.2336 96.7069 36.2085 96.7069C46.0386 96.7069 54.9038 93.8026 61.1516 88.5121C67.3392 83.2819 70.7526 75.9428 70.7526 67.8444C70.7526 53.9614 63.4795 44.5736 50.8029 42.0669H50.815Z" fill="black"/>
<path d="M276.682 0.912109C271.097 0.912109 266.719 5.22642 266.719 10.7338C266.719 16.2412 271.194 20.5555 276.682 20.5555C282.169 20.5555 286.777 16.1448 286.777 10.7338C286.777 5.32283 282.338 0.912109 276.682 0.912109Z" fill="black"/>
<path d="M284.714 29.207H268.648V94.7775H284.714V29.207Z" fill="black"/>
<path d="M535.189 42.1763C543.271 42.1763 548.3 46.0808 549.76 53.4923H566.501C565.114 37.7173 552.63 27.1484 535.334 27.1484C515.216 27.1484 501.164 41.4532 501.164 61.9402C501.164 82.4272 515.216 96.7078 535.334 96.7078C552.63 96.7078 565.114 86.1389 566.501 70.376H549.76C548.276 77.7754 543.247 81.68 535.189 81.68C526.566 81.68 517.857 75.5701 517.857 61.9281C517.857 49.9252 524.66 42.1763 535.189 42.1763Z" fill="black"/>
<path d="M603.76 42.1763C611.962 42.1763 616.859 45.9844 618.33 53.4923H635.071C633.684 37.7173 621.201 27.1484 603.892 27.1484C583.774 27.1484 569.734 41.4532 569.734 61.9402C569.734 82.4272 583.774 96.7078 603.892 96.7078C621.201 96.7078 633.684 86.1389 635.071 70.376H618.33C616.859 77.7754 611.817 81.68 603.76 81.68C595.136 81.68 586.44 75.5701 586.44 61.9281C586.44 49.9252 593.242 42.1763 603.76 42.1763Z" fill="black"/>
<path d="M675.443 27.28C667.615 27.28 661.258 29.883 657.555 34.6071L656.964 35.3663V2.18945H640.898V94.7666H656.964V59.083C656.964 48.008 662.392 41.8981 672.234 41.8981C681.003 41.8981 684.923 46.7667 684.923 57.673V94.7666H700.989V53.178C700.989 36.475 691.918 27.2679 675.455 27.2679L675.443 27.28Z" fill="black"/>
<path d="M725.402 29.207H709.336V94.7775H725.402V29.207Z" fill="black"/>
<path d="M717.365 0.912109C711.781 0.912109 707.391 5.22642 707.391 10.7338C707.391 16.2412 711.865 20.5555 717.365 20.5555C722.866 20.5555 727.461 16.1448 727.461 10.7338C727.461 5.32283 723.022 0.912109 717.365 0.912109Z" fill="black"/>
<path d="M768.97 27.2812C760.768 27.2812 754.014 30.282 750.444 35.5002L749.829 36.3919V29.2094H734.414V94.7799H750.48V59.0964C750.48 48.0213 755.908 41.9114 765.75 41.9114C774.518 41.9114 778.438 46.7801 778.438 57.6864V94.7799H794.504V53.1913C794.504 36.4883 785.434 27.2812 768.97 27.2812Z" fill="black"/>
<path d="M810.905 20.5692C816.465 20.5692 821 16.1585 821 10.7475C821 5.3365 816.573 0.925781 810.905 0.925781C805.236 0.925781 800.93 5.24009 800.93 10.7475C800.93 16.2549 805.405 20.5692 810.905 20.5692Z" fill="black"/>
<path d="M818.941 29.207H802.875V94.7775H818.941V29.207Z" fill="black"/>
<path d="M166.537 37.6446L165.91 38.8377V29.2088H149.844V94.7913H165.91V65.278C165.91 50.0814 172.097 42.6941 184.834 42.6941C186.993 42.6941 189.224 43.1761 191.456 44.1402V28.8111C189.236 28.1363 186.945 27.7988 184.653 27.7988C175.957 27.7988 170.035 31.0165 166.537 37.6567V37.6446Z" fill="black"/>
<path d="M108.952 27.2812C88.5918 27.2812 74.9141 41.1522 74.9141 61.8079C74.9141 82.4636 89.1828 96.7201 109.603 96.7201C124.631 96.7201 136.452 89.1881 141.3 76.5465H124.571C123.124 78.4264 118.963 82.4636 109.723 82.4636C99.628 82.4636 93.0666 76.9682 92.1499 67.7611L92.1137 67.3996H143.134C143.58 50.5762 138.044 41.2365 133.304 36.3437C127.478 30.3302 119.276 27.2933 108.964 27.2933L108.952 27.2812ZM92.3429 54.7338C92.9821 46.2498 99.423 40.7183 108.819 40.7183C118.215 40.7183 125.042 46.5029 125.427 54.7338H92.3429Z" fill="black"/>
<path d="M243.018 34.9338L242.427 34.2348C238.35 29.4143 232.392 27.2812 223.117 27.2812C206.001 27.2812 193.578 40.3929 193.578 58.4577C193.578 76.5224 205.941 89.634 222.984 89.634C232.175 89.634 238.085 87.4889 242.174 82.6805L242.765 81.9815V86.7538C242.765 97.5034 237.301 102.517 225.565 102.517C218.171 102.517 212.454 99.4196 211.514 94.9366H194.784C195.882 107.361 208.378 116.002 225.312 116.002C246.612 116.002 258.831 105.626 258.831 87.5251V29.5951H243.018V34.9338ZM226.856 75.9559C216.941 75.9559 210.633 68.8819 210.633 58.4577C210.633 48.0334 216.941 40.8388 226.856 40.8388C236.77 40.8388 243.078 48.0454 243.078 58.4577C243.078 68.8699 236.77 75.9559 226.856 75.9559Z" fill="black"/>
<path d="M326.411 27.2812C306.16 27.2812 291.469 41.8511 291.469 61.9404C291.469 82.0297 306.16 96.7081 326.411 96.7081C346.662 96.7081 361.353 82.078 361.353 61.9404C361.353 41.8029 346.662 27.2812 326.411 27.2812ZM343.96 61.9404C343.96 75.2088 335.143 81.15 326.411 81.15C314.289 81.15 308.849 71.497 308.849 61.9404C308.849 52.3839 314.289 42.7188 326.411 42.7188C335.155 42.7188 343.96 48.66 343.96 61.9404Z" fill="black"/>
<path d="M496 53.83C496 35.223 487.943 27.2812 469.055 27.2812C451.228 27.2812 440.445 34.9097 439.432 48.2142H456.149C456.897 42.6586 461.541 39.477 468.934 39.477C475.93 39.477 479.947 42.2247 479.947 47.0211C479.947 51.8174 475.906 52.8418 472.854 53.3961L459.719 55.8425C449.925 57.6261 438.25 62.772 438.25 77.1249C438.25 88.4892 448.008 96.7322 461.468 96.7322C472.71 96.7322 477.812 92.2973 479.862 89.6581L480.405 88.9591L480.453 89.851C480.586 92.2371 480.996 93.9122 481.273 94.804H498.075C496.652 90.4294 496 86.9105 496 83.4397V53.8541V53.83ZM479.609 69.7737C479.609 79.041 473.168 83.4156 465.316 83.4156C459.526 83.4156 455.281 80.5836 455.281 75.9559C455.281 71.0752 458.634 68.6288 464.049 67.5924L471.516 66.1824C476.533 65.1581 478.21 64.5073 479.621 63.483V69.7857L479.609 69.7737Z" fill="black"/>
<path d="M448.153 2.20312H373.891V18.2553H402.476V94.7803H419.833V18.2553H448.153V2.20312Z" fill="black"/>
</svg>
