<svg width="1350" height="220" viewBox="0 0 1347 213" fill="none" xmlns="http://www.w3.org/2000/svg">
<path d="M63 210H60V213H63V210ZM107.7 210V213H110.7V210H107.7ZM107.7 39.9V36.9H104.7V39.9H107.7ZM170.4 39.9V42.9H173.4V39.9H170.4ZM170.4 3.3H173.4V0.299995H170.4V3.3ZM2.38419e-07 3.3V0.299995H-3V3.3H2.38419e-07ZM2.38419e-07 39.9H-3V42.9H2.38419e-07V39.9ZM63 39.9H66V36.9H63V39.9ZM63 213H107.7V207H63V213ZM110.7 210V39.9H104.7V210H110.7ZM107.7 42.9H170.4V36.9H107.7V42.9ZM173.4 39.9V3.3H167.4V39.9H173.4ZM170.4 0.299995H2.38419e-07V6.3H170.4V0.299995ZM-3 3.3V39.9H3V3.3H-3ZM2.38419e-07 42.9H63V36.9H2.38419e-07V42.9ZM60 39.9V210H66V39.9H60ZM283.709 162.3L286.533 161.288L285.82 159.3H283.709V162.3ZM300.809 210L297.985 211.012L298.697 213H300.809V210ZM347.909 210V213H352.159L350.735 208.995L347.909 210ZM274.409 3.3L277.235 2.29489L276.526 0.299995H274.409V3.3ZM218.309 3.3V0.299995H216.159L215.468 2.33525L218.309 3.3ZM148.109 210L145.268 209.035L143.921 213H148.109V210ZM192.209 210V213H194.371L195.055 210.949L192.209 210ZM208.109 162.3V159.3H205.946L205.263 161.351L208.109 162.3ZM217.709 125.7L214.845 124.806L213.63 128.7H217.709V125.7ZM244.709 35.4V32.4H242.366L241.798 34.6724L244.709 35.4ZM245.009 35.4L247.902 34.6067L247.297 32.4H245.009V35.4ZM274.109 125.7V128.7H278.28L276.953 124.745L274.109 125.7ZM280.885 163.312L297.985 211.012L303.633 208.988L286.533 161.288L280.885 163.312ZM300.809 213H347.909V207H300.809V213ZM350.735 208.995L277.235 2.29489L271.582 4.30511L345.082 211.005L350.735 208.995ZM274.409 0.299995H218.309V6.3H274.409V0.299995ZM215.468 2.33525L145.268 209.035L150.949 210.965L221.149 4.26474L215.468 2.33525ZM148.109 213H192.209V207H148.109V213ZM195.055 210.949L210.955 163.249L205.263 161.351L189.363 209.051L195.055 210.949ZM208.109 165.3H283.709V159.3H208.109V165.3ZM220.572 126.594C232.256 89.146 242.492 56.6347 247.619 36.1276L241.798 34.6724C236.725 54.9653 226.561 87.254 214.845 124.806L220.572 126.594ZM244.709 38.4H245.009V32.4H244.709V38.4ZM242.115 36.1933C247.243 54.8952 256.578 82.8939 271.264 126.655L276.953 124.745C262.239 80.906 252.974 53.1047 247.902 34.6067L242.115 36.1933ZM274.109 122.7H217.709V128.7H274.109V122.7ZM496.057 146.1V143.1H493.861L493.197 145.193L496.057 146.1ZM496.357 67.2L493.466 68.0029L494.077 70.2H496.357V67.2ZM541.057 67.2V70.2H544.529L544.025 66.765L541.057 67.2ZM541.057 146.1L543.993 146.715L544.75 143.1H541.057V146.1ZM493.197 145.193C491.299 151.181 488.254 158.585 482.348 164.491C476.533 170.307 467.711 174.9 453.757 174.9V180.9C469.203 180.9 479.581 175.743 486.591 168.734C493.51 161.815 496.915 153.319 498.917 147.007L493.197 145.193ZM453.757 174.9C434.943 174.9 422.836 166.301 415.274 153.568C407.597 140.643 404.557 123.329 404.557 106.2H398.557C398.557 123.871 401.667 142.407 410.115 156.632C418.678 171.049 432.672 180.9 453.757 180.9V174.9ZM404.557 106.2C404.557 87.5982 408.038 70.4537 415.765 58.0624C423.383 45.8455 435.195 38.1 452.557 38.1V32.1C433.019 32.1 419.331 41.0045 410.674 54.8876C402.126 68.5963 398.557 87.0018 398.557 106.2H404.557ZM452.557 38.1C466.056 38.1 475.142 41.8883 481.37 47.3335C487.646 52.8212 491.312 60.2472 493.466 68.0029L499.248 66.3971C496.902 57.9528 492.768 49.3288 485.319 42.8165C477.822 36.2617 467.258 32.1 452.557 32.1V38.1ZM496.357 70.2H541.057V64.2H496.357V70.2ZM544.025 66.765C541.386 48.7567 533.139 31.3456 518.315 18.4375C503.471 5.51298 482.26 -2.70002 454.057 -2.70002V3.29998C481.054 3.29998 500.793 11.137 514.375 22.9625C527.975 34.8044 535.628 50.8433 538.089 67.635L544.025 66.765ZM454.057 -2.70002C419.918 -2.70002 394.375 10.3326 377.421 30.8251C360.529 51.242 352.357 78.8195 352.357 107.7H358.357C358.357 79.8805 366.235 53.758 382.044 34.6498C397.79 15.6173 421.596 3.29998 454.057 3.29998V-2.70002ZM352.357 107.7C352.357 137.588 360.208 164.668 376.722 184.329C393.301 204.068 418.338 216 451.957 216V210C419.876 210 396.613 198.682 381.317 180.471C365.956 162.182 358.357 136.612 358.357 107.7H352.357ZM451.957 216C478.463 216 499.412 208.79 514.813 196.4C530.209 184.012 539.824 166.635 543.993 146.715L538.121 145.485C534.19 164.265 525.205 180.338 511.051 191.725C496.902 203.11 477.352 210 451.957 210V216ZM541.057 143.1H496.057V149.1H541.057V143.1ZM703.631 146.1V143.1H701.435L700.772 145.193L703.631 146.1ZM703.931 67.2L701.041 68.0029L701.651 70.2H703.931V67.2ZM748.631 67.2V70.2H752.103L751.6 66.765L748.631 67.2ZM748.631 146.1L751.568 146.715L752.324 143.1H748.631V146.1ZM700.772 145.193C698.873 151.181 695.828 158.585 689.922 164.491C684.107 170.307 675.286 174.9 661.331 174.9V180.9C676.777 180.9 687.156 175.743 694.165 168.734C701.084 161.815 704.489 153.319 706.491 147.007L700.772 145.193ZM661.331 174.9C642.517 174.9 630.411 166.301 622.848 153.568C615.171 140.643 612.131 123.329 612.131 106.2H606.131C606.131 123.871 609.241 142.407 617.689 156.632C626.252 171.049 640.246 180.9 661.331 180.9V174.9ZM612.131 106.2C612.131 87.5982 615.613 70.4537 623.339 58.0624C630.957 45.8455 642.769 38.1 660.131 38.1V32.1C640.593 32.1 626.905 41.0045 618.248 54.8876C609.7 68.5963 606.131 87.0018 606.131 106.2H612.131ZM660.131 38.1C673.631 38.1 682.716 41.8883 688.944 47.3335C695.221 52.8212 698.886 60.2472 701.041 68.0029L706.822 66.3971C704.476 57.9528 700.342 49.3288 692.893 42.8165C685.396 36.2617 674.832 32.1 660.131 32.1V38.1ZM703.931 70.2H748.631V64.2H703.931V70.2ZM751.6 66.765C748.96 48.7567 740.714 31.3456 725.889 18.4375C711.045 5.51298 689.834 -2.70002 661.631 -2.70002V3.29998C688.628 3.29998 708.367 11.137 721.949 22.9625C735.549 34.8044 743.202 50.8433 745.663 67.635L751.6 66.765ZM661.631 -2.70002C627.492 -2.70002 601.949 10.3326 584.995 30.8251C568.103 51.242 559.931 78.8195 559.931 107.7H565.931C565.931 79.8805 573.809 53.758 589.618 34.6498C605.364 15.6173 629.171 3.29998 661.631 3.29998V-2.70002ZM559.931 107.7C559.931 137.588 567.782 164.668 584.297 184.329C600.875 204.068 625.912 216 659.531 216V210C627.45 210 604.187 198.682 588.891 180.471C573.53 162.182 565.931 136.612 565.931 107.7H559.931ZM659.531 216C686.037 216 706.987 208.79 722.387 196.4C737.783 184.012 747.398 166.635 751.568 146.715L745.695 145.485C741.764 164.265 732.779 180.338 718.626 191.725C704.476 203.11 684.926 210 659.531 210V216ZM748.631 143.1H703.631V149.1H748.631V143.1ZM777.19 210H774.19V213H777.19V210ZM821.89 210V213H824.89V210H821.89ZM821.89 120.6V117.6H818.89V120.6H821.89ZM905.29 120.6H908.29V117.6H905.29V120.6ZM905.29 210H902.29V213H905.29V210ZM949.99 210V213H952.99V210H949.99ZM949.99 3.3H952.99V0.299995H949.99V3.3ZM905.29 3.3V0.299995H902.29V3.3H905.29ZM905.29 83.7V86.7H908.29V83.7H905.29ZM821.89 83.7H818.89V86.7H821.89V83.7ZM821.89 3.3H824.89V0.299995H821.89V3.3ZM777.19 3.3V0.299995H774.19V3.3H777.19ZM777.19 213H821.89V207H777.19V213ZM824.89 210V120.6H818.89V210H824.89ZM821.89 123.6H905.29V117.6H821.89V123.6ZM902.29 120.6V210H908.29V120.6H902.29ZM905.29 213H949.99V207H905.29V213ZM952.99 210V3.3H946.99V210H952.99ZM949.99 0.299995H905.29V6.3H949.99V0.299995ZM902.29 3.3V83.7H908.29V3.3H902.29ZM905.29 80.7H821.89V86.7H905.29V80.7ZM824.89 83.7V3.3H818.89V83.7H824.89ZM821.89 0.299995H777.19V6.3H821.89V0.299995ZM774.19 3.3V210H780.19V3.3H774.19ZM993.26 3.3V0.299995H990.26V3.3H993.26ZM993.26 210H990.26V213H993.26V210ZM1037.96 210V213H1040.96V210H1037.96ZM1037.96 3.3H1040.96V0.299995H1037.96V3.3ZM990.26 3.3V210H996.26V3.3H990.26ZM993.26 213H1037.96V207H993.26V213ZM1040.96 210V3.3H1034.96V210H1040.96ZM1037.96 0.299995H993.26V6.3H1037.96V0.299995ZM1122.1 210V213H1125.1V210H1122.1ZM1120 49.5V46.5H1116.74L1117.01 49.7491L1120 49.5ZM1120.6 49.5L1123.35 48.2975L1122.57 46.5H1120.6V49.5ZM1206.1 210L1203.47 211.442L1204.33 213H1206.1V210ZM1258.6 210V213H1261.6V210H1258.6ZM1258.6 3.3H1261.6V0.299995H1258.6V3.3ZM1218.1 3.3V0.299995H1215.1V3.3H1218.1ZM1220.5 156V159H1223.85L1223.48 155.669L1220.5 156ZM1219.9 156L1217.14 157.177L1217.92 159H1219.9V156ZM1136.8 3.3L1139.42 1.8373L1138.56 0.299995H1136.8V3.3ZM1081.3 3.3V0.299995H1078.3V3.3H1081.3ZM1081.3 210H1078.3V213H1081.3V210ZM1125.1 210V147H1119.1V210H1125.1ZM1125.1 147C1125.1 110.13 1124.51 67.3988 1122.99 49.2509L1117.01 49.7491C1118.5 67.6012 1119.1 110.07 1119.1 147H1125.1ZM1120 52.5H1120.6V46.5H1120V52.5ZM1117.85 50.7024C1128.43 74.8637 1181.33 171.052 1203.47 211.442L1208.73 208.558C1186.47 167.948 1133.78 72.1363 1123.35 48.2975L1117.85 50.7024ZM1206.1 213H1258.6V207H1206.1V213ZM1261.6 210V3.3H1255.6V210H1261.6ZM1258.6 0.299995H1218.1V6.3H1258.6V0.299995ZM1215.1 3.3V64.5H1221.1V3.3H1215.1ZM1215.1 64.5C1215.1 98.3163 1215.1 134.524 1217.52 156.331L1223.48 155.669C1221.11 134.276 1221.1 98.4837 1221.1 64.5H1215.1ZM1220.5 153H1219.9V159H1220.5V153ZM1222.66 154.823C1217.79 143.397 1203.37 116.611 1187.05 87.0865C1170.7 57.4928 1152.31 24.9178 1139.42 1.8373L1134.18 4.7627C1147.09 27.8822 1165.46 60.4072 1181.8 89.9885C1198.19 119.639 1212.42 146.102 1217.14 157.177L1222.66 154.823ZM1136.8 0.299995H1081.3V6.3H1136.8V0.299995ZM1078.3 3.3V210H1084.3V3.3H1078.3ZM1081.3 213H1122.1V207H1081.3V213ZM1301.77 3.3V0.299995H1298.77V3.3H1301.77ZM1301.77 210H1298.77V213H1301.77V210ZM1346.47 210V213H1349.47V210H1346.47ZM1346.47 3.3H1349.47V0.299995H1346.47V3.3ZM1298.77 3.3V210H1304.77V3.3H1298.77ZM1301.77 213H1346.47V207H1301.77V213ZM1349.47 210V3.3H1343.47V210H1349.47ZM1346.47 0.299995H1301.77V6.3H1346.47V0.299995Z" fill="#655DC6"/>
</svg>
