<svg width="1067" height="220" viewBox="0 0 1067 214" fill="none" xmlns="http://www.w3.org/2000/svg">
<path d="M0.9 149.4V147.4H-1.37003L-1.08407 149.652L0.9 149.4ZM96 83.4L96.4668 81.4552L96.4513 81.4515L96.4357 81.448L96 83.4ZM118.8 60L116.834 60.3658L117.138 62H118.8V60ZM163.8 60V62H166.008L165.79 59.8029L163.8 60ZM78.3 122.4L77.8442 124.347L77.8539 124.35L78.3 122.4ZM45.9 149.4L47.8483 148.948L47.4893 147.4H45.9V149.4ZM-1.08407 149.652C1.37233 168.996 9.768 185.4 24.3723 196.944C38.9544 208.471 59.5324 215 86.1 215V211C60.1676 211 40.5456 204.63 26.8527 193.806C13.182 183 5.22767 167.604 2.88407 149.148L-1.08407 149.652ZM86.1 215C113.693 215 134.964 208.407 149.378 196.821C163.842 185.196 171.2 168.7 171.2 149.4H167.2C167.2 167.6 160.308 182.904 146.872 193.704C133.386 204.543 113.107 211 86.1 211V215ZM171.2 149.4C171.2 134.368 167.81 120.892 156.529 109.375C145.34 97.9532 126.605 88.6883 96.4668 81.4552L95.5333 85.3448C125.395 92.5117 143.26 101.547 153.671 112.175C163.99 122.708 167.2 135.032 167.2 149.4H171.2ZM96.4357 81.448C79.6099 77.6923 69.3835 74.3776 63.3571 70.3719C60.4006 68.4067 58.5311 66.3211 57.3763 63.9915C56.2145 61.6476 55.7 58.9029 55.7 55.5H51.7C51.7 59.2971 52.273 62.7024 53.7924 65.7679C55.319 68.8476 57.7244 71.4308 61.1429 73.7031C67.8665 78.1723 78.7901 81.6077 95.5643 85.352L96.4357 81.448ZM55.7 55.5C55.7 48.6988 58.1645 43.7798 62.5817 40.4918C67.0912 37.1351 73.8784 35.3 82.8 35.3V31.3C73.4216 31.3 65.6588 33.2149 60.1933 37.2832C54.6355 41.4202 51.7 47.6012 51.7 55.5H55.7ZM82.8 35.3C95.8029 35.3 103.652 38.6528 108.54 43.2668C113.458 47.9102 115.668 54.1006 116.834 60.3658L120.766 59.6342C119.532 52.9994 117.092 45.8397 111.285 40.3582C105.448 34.8471 96.4971 31.3 82.8 31.3V35.3ZM118.8 62H163.8V58H118.8V62ZM165.79 59.8029C164.25 44.2414 157.84 28.8126 144.68 17.2832C131.518 5.75172 111.809 -1.70002 84 -1.70002V2.29998C111.091 2.29998 129.782 9.54825 142.045 20.2918C154.31 31.0374 160.35 45.4586 161.81 60.1971L165.79 59.8029ZM84 -1.70002C59.2408 -1.70002 39.766 4.45095 26.4423 15.4051C13.0745 26.3956 6.1 42.0602 6.1 60.6H10.1C10.1 43.1398 16.6255 28.6544 28.9827 18.4949C41.384 8.29902 59.8592 2.29998 84 2.29998V-1.70002ZM6.1 60.6C6.1 74.9233 9.66303 87.65 20.6486 98.4394C31.5354 109.132 49.5095 117.716 77.8442 124.347L78.7558 120.453C50.6906 113.884 33.5646 105.518 23.4514 95.5856C13.437 85.75 10.1 74.1767 10.1 60.6H6.1ZM77.8539 124.35C95.5668 128.403 106.523 132.161 113.059 136.85C116.273 139.156 118.37 141.655 119.684 144.501C121.008 147.366 121.6 150.713 121.6 154.8H125.6C125.6 150.337 124.955 146.372 123.316 142.824C121.668 139.257 119.077 136.244 115.391 133.6C108.127 128.389 96.4332 124.497 78.7461 120.45L77.8539 124.35ZM121.6 154.8C121.6 161.806 119.246 167.315 114.28 171.141C109.223 175.035 101.183 177.4 89.4 177.4V181.4C101.617 181.4 110.677 178.964 116.72 174.309C122.854 169.585 125.6 162.794 125.6 154.8H121.6ZM89.4 177.4C77.6342 177.4 68.3994 175.117 61.5692 170.505C54.7852 165.924 50.1555 158.898 47.8483 148.948L43.9517 149.852C46.4445 160.602 51.5648 168.576 59.3308 173.82C67.0506 179.033 77.1658 181.4 89.4 181.4V177.4ZM45.9 147.4H0.9V151.4H45.9V147.4ZM338.721 84H340.721V82H338.721V84ZM239.721 84H237.721V86H239.721V84ZM239.721 39.9V37.9H237.721V39.9H239.721ZM342.921 39.9V41.9H344.921V39.9H342.921ZM342.921 3.3H344.921V1.3H342.921V3.3ZM196.221 3.3V1.3H194.221V3.3H196.221ZM196.221 210H194.221V212H196.221V210ZM343.521 210V212H345.248L345.5 210.292L343.521 210ZM348.921 173.4L350.9 173.692L351.238 171.4H348.921V173.4ZM239.721 173.4H237.721V175.4H239.721V173.4ZM239.721 120.9V118.9H237.721V120.9H239.721ZM338.721 120.9V122.9H340.721V120.9H338.721ZM338.721 82H239.721V86H338.721V82ZM241.721 84V39.9H237.721V84H241.721ZM239.721 41.9H342.921V37.9H239.721V41.9ZM344.921 39.9V3.3H340.921V39.9H344.921ZM342.921 1.3H196.221V5.3H342.921V1.3ZM194.221 3.3V210H198.221V3.3H194.221ZM196.221 212H343.521V208H196.221V212ZM345.5 210.292L350.9 173.692L346.943 173.108L341.543 209.708L345.5 210.292ZM348.921 171.4H239.721V175.4H348.921V171.4ZM241.721 173.4V120.9H237.721V173.4H241.721ZM239.721 122.9H338.721V118.9H239.721V122.9ZM340.721 120.9V84H336.721V120.9H340.721ZM491.191 210L489.334 210.743L489.837 212H491.191V210ZM533.791 210V212H536.512L535.7 209.403L533.791 210ZM504.991 108.9L504.217 107.056L499.619 108.987L504.277 110.768L504.991 108.9ZM374.791 3.3V1.3H372.791V3.3H374.791ZM374.791 210H372.791V212H374.791V210ZM418.591 210V212H420.591V210H418.591ZM418.591 127.2V125.2H416.591V127.2H418.591ZM418.591 38.7V36.7H416.591V38.7H418.591ZM418.591 91.5H416.591V93.5H418.591V91.5ZM447.991 129.2C464.562 129.2 473.59 131.919 478.574 136.836C483.53 141.726 484.991 149.281 484.991 160.5H488.991C488.991 149.219 487.603 140.124 481.384 133.989C475.193 127.881 464.721 125.2 447.991 125.2V129.2ZM484.991 160.5V163.5H488.991V160.5H484.991ZM484.991 163.5C484.991 174.455 485.141 183.896 485.747 191.742C486.352 199.558 487.419 205.954 489.334 210.743L493.048 209.257C491.364 205.046 490.331 199.142 489.735 191.433C489.142 183.754 488.991 174.445 488.991 163.5H484.991ZM491.191 212H533.791V208H491.191V212ZM535.7 209.403C534.278 204.85 533.536 198.68 533.163 191.816C532.792 184.98 532.791 177.611 532.791 170.7H528.791C528.791 177.589 528.791 185.07 529.169 192.034C529.546 198.97 530.305 205.55 531.882 210.597L535.7 209.403ZM532.791 170.7V160.5H528.791V170.7H532.791ZM532.791 160.5C532.791 141.628 528.834 129.283 523.38 121.103C517.912 112.901 511.072 109.084 505.706 107.032L504.277 110.768C509.111 112.616 515.171 115.999 520.052 123.322C524.949 130.667 528.791 142.173 528.791 160.5H532.791ZM505.766 110.744C521.427 104.166 536.991 88.4899 536.991 60H532.991C532.991 86.7101 518.556 101.034 504.217 107.056L505.766 110.744ZM536.991 60C536.991 43.4176 530.699 28.6746 518.528 18.1026C506.378 7.54966 488.546 1.3 465.691 1.3V5.3C487.836 5.3 504.654 11.3503 515.905 21.1224C527.133 30.8754 532.991 44.4824 532.991 60H536.991ZM465.691 1.3H374.791V5.3H465.691V1.3ZM372.791 3.3V210H376.791V3.3H372.791ZM374.791 212H418.591V208H374.791V212ZM420.591 210V127.2H416.591V210H420.591ZM418.591 129.2H447.991V125.2H418.591V129.2ZM418.591 40.7H456.991V36.7H418.591V40.7ZM456.991 40.7C467.689 40.7 475.417 43.0498 480.439 47.1493C485.394 51.1942 487.991 57.1706 487.991 65.1H491.991C491.991 56.2294 489.039 49.0057 482.969 44.0507C476.966 39.1502 468.194 36.7 456.991 36.7V40.7ZM487.991 65.1C487.991 73.2709 485.713 79.2042 480.885 83.1665C475.97 87.2001 468.05 89.5 456.091 89.5V93.5C468.433 93.5 477.463 91.1498 483.423 86.2585C489.47 81.2958 491.991 74.0291 491.991 65.1H487.991ZM456.091 89.5H418.591V93.5H456.091V89.5ZM420.591 91.5V38.7H416.591V91.5H420.591ZM748.596 94.2H750.596V92.2H748.596V94.2ZM659.496 94.2V92.2H657.496V94.2H659.496ZM659.496 130.8H657.496V132.8H659.496V130.8ZM704.796 130.8H706.796V128.8H704.796V130.8ZM704.496 65.4L702.583 65.9823L703.014 67.4H704.496V65.4ZM749.196 65.4V67.4H751.488L751.178 65.129L749.196 65.4ZM712.296 189.6L714.289 189.427L713.827 184.116L710.681 188.42L712.296 189.6ZM715.896 210L713.973 210.549L714.388 212H715.896V210ZM748.596 210V212H750.596V210H748.596ZM748.596 92.2H659.496V96.2H748.596V92.2ZM657.496 94.2V130.8H661.496V94.2H657.496ZM659.496 132.8H704.796V128.8H659.496V132.8ZM702.796 130.8V132.9H706.796V130.8H702.796ZM702.796 132.9C702.796 141.845 701.027 152.604 694.82 161.081C688.696 169.445 678.021 175.9 659.496 175.9V179.9C679.071 179.9 691.046 173.005 698.047 163.444C704.965 153.996 706.796 142.255 706.796 132.9H702.796ZM659.496 175.9C639.626 175.9 626.531 167.47 618.311 154.799C610.014 142.009 606.596 124.744 606.596 107.1H602.596C602.596 125.156 606.078 143.291 614.956 156.976C623.911 170.78 638.267 179.9 659.496 179.9V175.9ZM606.596 107.1C606.596 89.1102 609.58 71.5446 617.622 58.5394C625.574 45.6807 638.572 37.1 659.196 37.1V33.1C637.22 33.1 622.918 42.3693 614.22 56.4356C605.612 70.3554 602.596 88.7898 602.596 107.1H606.596ZM659.196 37.1C673.963 37.1 683.76 41.1109 690.352 46.6108C696.971 52.132 700.554 59.3156 702.583 65.9823L706.409 64.8177C704.238 57.6844 700.321 49.718 692.915 43.5392C685.483 37.3391 674.729 33.1 659.196 33.1V37.1ZM704.496 67.4H749.196V63.4H704.496V67.4ZM751.178 65.129C746.219 28.8651 713.711 -1.70002 659.796 -1.70002V2.29998C712.082 2.29998 742.574 31.7349 747.215 65.671L751.178 65.129ZM659.796 -1.70002C626.733 -1.70002 600.816 10.2028 583.185 30.1375C565.583 50.041 556.396 77.7728 556.396 109.2H560.396C560.396 78.5271 569.359 51.809 586.182 32.7874C602.977 13.7972 627.759 2.29998 659.796 2.29998V-1.70002ZM556.396 109.2C556.396 138.964 564.9 165.557 581.171 184.744C597.474 203.969 621.445 215.6 651.996 215.6V211.6C622.547 211.6 599.718 200.431 584.221 182.156C568.692 163.843 560.396 138.236 560.396 109.2H556.396ZM651.996 215.6C681.153 215.6 701.994 207.087 713.911 190.78L710.681 188.42C699.798 203.313 680.439 211.6 651.996 211.6V215.6ZM710.304 189.773C710.912 196.772 712.131 204.101 713.973 210.549L717.819 209.451C716.061 203.299 714.88 196.228 714.289 189.427L710.304 189.773ZM715.896 212H748.596V208H715.896V212ZM750.596 210V94.2H746.596V210H750.596ZM787.889 3.3V1.3H785.889V3.3H787.889ZM787.889 210H785.889V212H787.889V210ZM832.589 210V212H834.589V210H832.589ZM832.589 3.3H834.589V1.3H832.589V3.3ZM785.889 3.3V210H789.889V3.3H785.889ZM787.889 212H832.589V208H787.889V212ZM834.589 210V3.3H830.589V210H834.589ZM832.589 1.3H787.889V5.3H832.589V1.3ZM967.432 -1.70002C934.823 -1.70002 908.843 10.0491 891.03 29.5512C873.238 49.0305 863.732 76.0898 863.732 106.5H867.732C867.732 76.9102 876.976 50.8695 893.984 32.2488C910.971 13.6509 935.841 2.29998 967.432 2.29998V-1.70002ZM863.732 106.5C863.732 136.563 872.311 163.69 889.307 183.334C906.337 203.016 931.661 215 964.732 215V211C932.703 211 908.527 199.434 892.332 180.716C876.103 161.96 867.732 135.837 867.732 106.5H863.732ZM964.732 215C998.864 215 1024.86 202.408 1042.29 182.363C1059.69 162.355 1068.43 135.083 1068.43 105.9H1064.43C1064.43 134.317 1055.92 160.595 1039.27 179.738C1022.66 198.842 997.8 211 964.732 211V215ZM1068.43 105.9C1068.43 73.8486 1058.71 46.9282 1041.12 28.0012C1023.52 9.05854 998.219 -1.70002 967.432 -1.70002V2.29998C997.245 2.29998 1021.44 12.6914 1038.19 30.7237C1054.96 48.7718 1064.43 74.6514 1064.43 105.9H1068.43ZM965.632 38.6C984.219 38.6 997.242 45.9632 1005.7 57.9643C1014.22 70.0662 1018.23 87.0799 1018.23 106.5H1022.23C1022.23 86.6201 1018.14 68.6838 1008.97 55.6607C999.722 42.5368 985.445 34.6 965.632 34.6V38.6ZM1018.23 106.5C1018.23 124.746 1014.74 141.855 1006.52 154.338C998.388 166.702 985.522 174.7 966.232 174.7V178.7C986.842 178.7 1000.98 170.048 1009.87 156.537C1018.68 143.145 1022.23 125.154 1022.23 106.5H1018.23ZM966.232 174.7C948.574 174.7 935.611 167.359 926.989 155.182C918.307 142.918 913.932 125.597 913.932 105.6H909.932C909.932 126.103 914.407 144.332 923.725 157.493C933.103 170.741 947.29 178.7 966.232 178.7V174.7ZM913.932 105.6C913.932 85.7219 917.945 68.9435 926.347 57.1879C934.675 45.535 947.468 38.6 965.632 38.6V34.6C946.296 34.6 932.239 42.065 923.092 54.862C914.019 67.5565 909.932 85.2781 909.932 105.6H913.932Z" fill="#321A80"/>
</svg>
