<svg width="1121" height="268" viewBox="0 0 1121 268" fill="none" xmlns="http://www.w3.org/2000/svg">
<path fill-rule="evenodd" clip-rule="evenodd" d="M26 174.1H74.8593L75.2183 175.648C77.5256 185.598 82.1553 192.624 88.9393 197.205C95.7695 201.817 105.004 204.1 116.77 204.1C128.553 204.1 136.593 201.736 141.65 197.841C146.616 194.015 148.97 188.506 148.97 181.5C148.97 177.413 148.378 174.066 147.054 171.201C145.74 168.355 143.643 165.856 140.429 163.55C133.893 158.861 122.937 155.103 105.224 151.05L105.214 151.047C76.8795 144.416 58.9054 135.832 48.0186 125.139C37.0331 114.35 33.47 101.623 33.47 87.3C33.47 68.7602 40.4445 53.0956 53.8124 42.1051C67.136 31.151 86.6108 25 111.37 25C139.179 25 158.888 32.4517 172.05 43.9832C185.21 55.5126 191.62 70.9414 193.16 86.503L193.378 88.7H144.508L144.204 87.0658C143.038 80.8006 140.828 74.6102 135.91 69.9668C131.022 65.3528 123.173 62 110.17 62C101.248 62 94.4613 63.8351 89.9517 67.1918C85.5345 70.4799 83.07 75.3988 83.07 82.2C83.07 85.6029 83.5846 88.3476 84.7464 90.6915C85.9011 93.0211 87.7706 95.1067 90.7272 97.0719C96.7535 101.078 106.98 104.392 123.806 108.148L123.821 108.152L123.837 108.155C153.975 115.388 172.71 124.653 183.899 136.075C195.18 147.592 198.57 161.068 198.57 176.1C198.57 195.4 191.212 211.896 176.748 223.521C162.334 235.107 141.063 241.7 113.47 241.7C86.9024 241.7 66.3245 235.171 51.7423 223.644C37.138 212.1 28.7424 195.696 26.286 176.352L26 174.1ZM146.17 86.7C143.77 73.8 136.87 60 110.17 60C91.87 60 81.07 67.5 81.07 82.2C81.07 96.6 89.77 102.6 123.37 110.1C183.37 124.5 196.57 146.7 196.57 176.1C196.57 213.6 168.07 239.7 113.47 239.7C61.9012 239.7 34.0675 214.807 28.5473 178.1C28.4476 177.437 28.3552 176.77 28.27 176.1H73.27C78.07 196.8 92.77 206.1 116.77 206.1C140.77 206.1 150.97 196.5 150.97 181.5C150.97 164.4 141.07 157.2 105.67 149.1C49.27 135.9 35.47 115.2 35.47 87.3C35.47 51.3 62.47 27 111.37 27C165.061 27 187.19 55.1195 190.944 84.7C191.029 85.3661 191.104 86.0328 191.17 86.7H146.17ZM368.091 108.7V149.6H269.091V198.1H378.608L372.618 238.7H221.591V28H372.291V68.6H269.091V108.7H368.091ZM370.891 236.7H223.591V30H370.291V66.6H267.091V110.7H366.091V147.6H267.091V200.1H376.291L370.891 236.7ZM517.207 238.7L516.704 237.443C514.789 232.654 513.722 226.258 513.117 218.442C512.511 210.596 512.361 201.155 512.361 190.2V187.2C512.361 175.981 510.9 168.426 505.944 163.536C500.96 158.619 491.932 155.9 475.361 155.9H447.961V238.7H400.161V28H493.061C515.916 28 533.749 34.2497 545.898 44.8026C558.07 55.3746 564.361 70.1176 564.361 86.7C564.361 112.747 551.352 128.084 537.152 135.549C541.644 137.867 546.594 141.568 550.751 147.803C556.204 155.983 560.161 168.328 560.161 187.2V197.4C560.161 204.311 560.162 211.68 560.534 218.516C560.907 225.38 561.648 231.55 563.07 236.103L563.882 238.7H517.207ZM534.891 136.668C534.021 136.263 533.174 135.911 532.361 135.6C533.198 135.249 534.034 134.87 534.868 134.464C548.988 127.588 562.361 112.761 562.361 86.7C562.361 54.6 538.061 30 493.061 30H402.161V236.7H445.961V153.9H475.361C508.661 153.9 514.361 164.7 514.361 187.2V190.2C514.361 212.1 514.961 227.7 518.561 236.7H561.161C560.962 236.06 560.775 235.393 560.601 234.7C558.161 224.991 558.161 210.281 558.161 197.4V187.2C558.161 152.963 544.948 141.342 534.891 136.668ZM484.361 67.4H447.961V116.2H483.461C495.42 116.2 503.34 113.9 508.255 109.867C513.083 105.904 515.361 99.9709 515.361 91.8C515.361 83.8706 512.764 77.8943 507.809 73.8493C502.787 69.7498 495.059 67.4 484.361 67.4ZM777.966 118.9V238.7H741.758L741.343 237.249C739.922 232.277 738.872 226.779 738.187 221.314C725.909 235.119 706.145 242.3 679.366 242.3C648.815 242.3 624.844 230.669 608.541 211.444C592.27 192.257 583.766 165.664 583.766 135.9C583.766 104.473 592.953 76.741 610.555 56.8375C628.186 36.9028 654.103 25 687.166 25C741.081 25 773.589 55.5651 778.548 91.829L778.858 94.1H730.384L729.953 92.6823C727.924 86.0156 724.341 78.832 717.722 73.3108C711.13 67.8109 701.333 63.8 686.566 63.8C665.942 63.8 652.944 72.3807 644.992 85.2394C636.95 98.2446 633.966 115.81 633.966 133.8C633.966 151.444 637.384 168.709 645.682 181.499C653.901 194.17 666.996 202.6 686.866 202.6C705.391 202.6 716.066 196.145 722.19 187.781C728.397 179.304 730.166 168.545 730.166 159.6V159.5H684.866V118.9H777.966ZM737.877 218.603C726.219 232.725 706.715 240.3 679.366 240.3C619.366 240.3 585.766 194.7 585.766 135.9C585.766 73.8 622.066 27 687.166 27C739.255 27 770.558 55.868 776.263 90.1C776.374 90.7647 776.475 91.4314 776.566 92.1H731.866C727.666 78.3 716.866 61.8 686.566 61.8C643.966 61.8 631.966 97.5 631.966 133.8C631.966 169.5 645.766 204.6 686.866 204.6C724.966 204.6 732.166 177.9 732.166 159.6V157.5H686.866V120.9H775.966V236.7H743.266C741.719 231.284 740.615 225.202 739.954 219.217C739.846 218.241 739.75 217.268 739.666 216.3C739.092 217.086 738.495 217.854 737.877 218.603ZM813.259 28H861.959V238.7H813.259V28ZM815.259 236.7V30H859.959V236.7H815.259ZM918.4 56.2512C936.213 36.7491 962.193 25 994.802 25C1025.59 25 1050.89 35.7586 1068.49 54.7013C1086.08 73.6282 1095.8 100.549 1095.8 132.6C1095.8 161.783 1087.06 189.055 1069.66 209.063C1052.23 229.108 1026.23 241.7 992.102 241.7C959.031 241.7 933.707 229.716 916.677 210.034C899.681 190.39 891.102 163.263 891.102 133.2C891.102 102.79 900.608 75.7305 918.4 56.2512ZM1033.07 84.6644C1024.61 72.6632 1011.59 65.3 993.002 65.3C974.838 65.3 962.045 72.235 953.717 83.888C945.315 95.6435 941.302 112.422 941.302 132.3C941.302 152.297 945.677 169.618 954.359 181.882C962.981 194.059 975.944 201.4 993.602 201.4C1012.89 201.4 1025.76 193.402 1033.89 181.038C1042.11 168.555 1045.6 151.446 1045.6 133.2C1045.6 113.78 1041.59 96.7662 1033.07 84.6644ZM445.961 65.4V118.2H483.461C507.761 118.2 517.361 108.9 517.361 91.8C517.361 75 506.261 65.4 484.361 65.4H445.961ZM893.102 133.2C893.102 73.2 930.602 27 994.802 27C1055.4 27 1093.8 69.3 1093.8 132.6C1093.8 190.2 1059.3 239.7 992.102 239.7C927.002 239.7 893.102 192.6 893.102 133.2ZM1047.6 133.2C1047.6 93.9 1031.4 63.3 993.002 63.3C955.502 63.3 939.302 92.1 939.302 132.3C939.302 172.8 957.002 203.4 993.602 203.4C1033.5 203.4 1047.6 170.1 1047.6 133.2Z" fill="#321A80"/>
</svg>
