<svg width="1401" height="267" viewBox="0 0 1401 267" fill="none" xmlns="http://www.w3.org/2000/svg">
<path fill-rule="evenodd" clip-rule="evenodd" d="M88 238.7V68.6H25V28H199.4V68.6H136.7V238.7H88ZM134.7 236.7H90V66.6H27V30H197.4V66.6H134.7V236.7ZM327.809 236.7L310.709 189H235.109L219.209 236.7H175.109L245.309 30H301.409L374.909 236.7H327.809ZM236.55 191L220.65 238.7H172.317L243.876 28H302.82L377.742 238.7H326.401L309.301 191H236.55ZM244.709 152.4H301.109C300.884 151.73 300.66 151.063 300.437 150.4C286.962 110.241 278.112 83.6632 272.931 65.4056C272.618 64.3005 272.318 63.2259 272.031 62.1805C272.023 62.1537 272.016 62.1268 272.009 62.1H271.709C271.701 62.1294 271.694 62.1589 271.686 62.1883C271.424 63.2371 271.148 64.3175 270.859 65.4286C265.886 84.5564 257.079 112.769 246.922 145.307C246.396 146.993 245.866 148.691 245.333 150.4C245.125 151.065 244.917 151.732 244.709 152.4ZM247.428 150.4H298.328C285.749 112.912 277.207 87.2639 271.937 69.1818C266.832 88.2382 258.429 115.158 248.843 145.865C248.374 147.368 247.902 148.88 247.428 150.4ZM521.593 170.8H570.519L570.015 173.21C565.885 192.94 556.375 210.1 541.186 222.321C525.994 234.544 505.277 241.7 478.957 241.7C445.594 241.7 420.853 229.87 404.488 210.386C388.166 190.953 380.357 164.125 380.357 134.4C380.357 105.696 388.48 78.3613 405.191 58.1626C421.944 37.9134 447.198 25 481.057 25C509.059 25 530.025 33.1503 544.658 45.8917C559.279 58.6221 567.426 75.8045 570.036 93.61L570.372 95.9H521.837L521.43 94.4353C519.244 86.5648 515.5 78.9392 509.028 73.2807C502.589 67.6505 493.257 63.8 479.557 63.8C461.832 63.8 449.708 71.7387 441.917 84.2333C434.053 96.8442 430.557 114.199 430.557 132.9C430.557 150.119 433.609 167.637 441.414 180.779C449.143 193.792 461.564 202.6 480.757 202.6C494.96 202.6 504.041 197.913 510.055 191.898C516.13 185.824 519.235 178.237 521.151 172.196L521.593 170.8ZM523.357 93.9C518.857 77.7 507.757 61.8 479.557 61.8C442.657 61.8 428.557 95.1 428.557 132.9C428.557 167.7 440.857 204.6 480.757 204.6C510.157 204.6 519.157 185.1 523.057 172.8H568.057C567.917 173.47 567.77 174.137 567.618 174.8C558.943 212.468 529.959 239.7 478.957 239.7C413.257 239.7 382.357 193.2 382.357 134.4C382.357 77.7 414.457 27 481.057 27C535.198 27 561.922 57.88 567.74 91.9C567.853 92.5656 567.959 93.2323 568.057 93.9H523.357ZM729.167 170.8H778.093L777.589 173.21C773.459 192.94 763.949 210.1 748.76 222.321C733.568 234.544 712.852 241.7 686.531 241.7C653.169 241.7 628.427 229.87 612.062 210.386C595.74 190.953 587.931 164.125 587.931 134.4C587.931 105.696 596.054 78.3613 612.765 58.1626C629.518 37.9134 654.772 25 688.631 25C716.633 25 737.599 33.1503 752.232 45.8917C766.853 58.6221 775.001 75.8045 777.61 93.61L777.946 95.9H729.411L729.004 94.4353C726.818 86.5648 723.074 78.9392 716.602 73.2807C710.163 67.6505 700.831 63.8 687.131 63.8C669.407 63.8 657.282 71.7387 649.491 84.2333C641.627 96.8442 638.131 114.199 638.131 132.9C638.131 150.119 641.183 167.637 648.988 180.779C656.717 193.792 669.138 202.6 688.331 202.6C702.534 202.6 711.615 197.913 717.63 191.898C723.704 185.824 726.809 178.237 728.725 172.196L729.167 170.8ZM730.931 93.9C726.431 77.7 715.331 61.8 687.131 61.8C650.231 61.8 636.131 95.1 636.131 132.9C636.131 167.7 648.431 204.6 688.331 204.6C717.731 204.6 726.731 185.1 730.631 172.8H775.631C775.491 173.47 775.345 174.137 775.192 174.8C766.517 212.468 737.533 239.7 686.531 239.7C620.831 239.7 589.931 193.2 589.931 134.4C589.931 77.7 622.031 27 688.631 27C742.772 27 769.496 57.88 775.314 91.9C775.428 92.5656 775.533 93.2323 775.631 93.9H730.931ZM802.19 238.7V28H850.89V108.4H930.29V28H978.99V238.7H930.29V149.3H850.89V238.7H802.19ZM848.89 30V110.4H932.29V30H976.99V236.7H932.29V147.3H848.89V236.7H804.19V30H848.89ZM1018.26 28H1066.96V238.7H1018.26V28ZM1020.26 236.7V30H1064.96V236.7H1020.26ZM1151.1 238.7H1106.3V28H1164.98L1165.55 29.0249C1169.73 36.5162 1174.49 45.0055 1179.58 54.0675C1190.16 72.9331 1202.13 94.2804 1213.18 114.27C1226.17 137.787 1237.94 159.522 1244.65 173.145C1243.1 151.288 1243.1 120.469 1243.1 91.3331V28H1287.6V238.7H1231.92L1231.35 237.661C1230.11 235.403 1228.78 232.97 1227.36 230.386C1205.69 190.872 1164.59 115.917 1149.58 85.1491C1150.66 106.144 1151.1 142.059 1151.1 173.7V238.7ZM1147.31 80.3905C1147.26 79.6315 1147.21 78.9008 1147.16 78.2C1147.11 77.5953 1147.07 77.0128 1147.02 76.4534C1147.02 76.3684 1147.01 76.2839 1147 76.2H1147.6C1148.08 77.2852 1148.64 78.5175 1149.28 79.8853C1162.03 107.094 1206.34 187.887 1229.15 229.488C1230.55 232.048 1231.87 234.459 1233.1 236.7H1285.6V30H1245.1V91.2C1245.1 122.817 1245.1 156.26 1247.05 178.144C1247.13 179.015 1247.21 179.867 1247.29 180.7C1247.35 181.295 1247.41 181.88 1247.48 182.456C1247.49 182.537 1247.49 182.619 1247.5 182.7H1246.9C1246.4 181.521 1245.79 180.174 1245.09 178.672C1234.54 156.155 1202.44 98.9109 1177.83 55.046C1172.75 45.9852 1167.99 37.4951 1163.8 30H1108.3V236.7H1149.1V173.7C1149.1 139.417 1148.59 100.214 1147.31 80.3905ZM1326.77 28H1375.47V238.7H1326.77V28ZM1328.77 236.7V30H1373.47V236.7H1328.77Z" fill="#655DC6"/>
</svg>
